<?xml version="1.0" standalone="no"?><!DOCTYPE svg PUBLIC "-//W3C//DTD SVG 1.1//EN" "http://www.w3.org/Graphics/SVG/1.1/DTD/svg11.dtd"><svg t="1725414194698" class="icon" viewBox="0 0 1024 1024" version="1.1" xmlns="http://www.w3.org/2000/svg" p-id="2800" xmlns:xlink="http://www.w3.org/1999/xlink" width="200" height="200"><path d="M596.8 99.2h20.8l206.4 241.6-4.8 14.4H641.6l-30.4-14.4-25.6-41.6 11.2-200z" fill="#FFFFFF" p-id="2801"></path><path d="M822.4 342.4c-1.6-6.4-6.4-11.2-9.6-16L624 105.6c-4.8-6.4-11.2-9.6-17.6-12.8s-14.4-4.8-22.4-4.8H225.6c-14.4 0-27.2 4.8-36.8 16-11.2 11.2-14.4 24-14.4 36.8v728c0 14.4 4.8 27.2 14.4 38.4s24 16 36.8 16h545.6c14.4 0 28.8-4.8 38.4-16s16-24 16-38.4V360c0-4.8-1.6-11.2-3.2-17.6z m-20.8-8c0-1.6 0-1.6 0 0h-156.8c-12.8 0-22.4-1.6-32-11.2s-12.8-19.2-12.8-32V104s3.2 1.6 4.8 1.6c6.4 3.2 11.2 8 16 12.8L793.6 320c3.2 3.2 6.4 1.6 8 14.4 0-1.6 0 0 0 0z" fill="#F5F5F5" p-id="2802"></path><path d="M905.6 572.8c-11.2-11.2-25.6-16-38.4-16h-30.4V360v-4.8c0-4.8 0-12.8-3.2-20.8-1.6-6.4-4.8-14.4-11.2-20.8L635.2 94.4c-6.4-8-14.4-11.2-20.8-14.4l-3.2-1.6c-8-3.2-14.4-3.2-19.2-3.2H225.6c-22.4 0-40 6.4-51.2 17.6S152 118.4 152 139.2v728c0 17.6 8 38.4 22.4 51.2 14.4 14.4 33.6 22.4 51.2 22.4h545.6c20.8 0 36.8-12.8 48-22.4 11.2-11.2 19.2-28.8 19.2-51.2v-75.2h30.4c14.4 0 28.8-4.8 38.4-16 11.2-11.2 16-24 16-38.4v-128c0-12.8-6.4-25.6-17.6-36.8z m-304-464c6.4 3.2 8 4.8 9.6 6.4l184 217.6H640c-9.6 0-19.2-4.8-27.2-12.8s-11.2-19.2-11.2-28.8V108.8z m203.2 758.4c0 9.6-1.6 22.4-9.6 28.8-9.6 9.6-17.6 14.4-24 14.4H225.6c-9.6 0-20.8-6.4-28.8-14.4s-12.8-20.8-12.8-28.8V139.2c0-6.4 3.2-14.4 12.8-24 6.4-6.4 19.2-8 28.8-8h344v184c0 17.6 8 36.8 20.8 51.2 12.8 12.8 32 22.4 49.6 22.4h164.8v193.6H428.8c-14.4 0-27.2 4.8-36.8 16-11.2 11.2-14.4 24-14.4 36.8v128c0 14.4 4.8 27.2 14.4 38.4 11.2 11.2 24 16 36.8 16h376v73.6z" fill="#C3C3C3" p-id="2803"></path><path d="M531.2 745.6h-22.4v-116.8h73.6v17.6h-52.8v32h41.6v17.6h-41.6v49.6zM619.2 745.6h-20.8v-116.8h20.8v116.8zM716.8 745.6h-72v-116.8h22.4v97.6h49.6v19.2zM809.6 745.6h-76.8v-116.8h75.2v17.6h-54.4v32h43.2v17.6h-43.2v33.6h54.4v16z" fill="#FFFFFF" p-id="2804"></path><path d="M361.6 345.6h-6.4c-1.6 0-3.2-1.6-3.2-1.6h-1.6v-57.6c-1.6 0-3.2 1.6-4.8 1.6h-14.4c-16 0-32-6.4-43.2-17.6s-19.2-25.6-19.2-41.6v-14.4c0-3.2 1.6-4.8 4.8-4.8h35.2c11.2 0 20.8 3.2 30.4 8 6.4 3.2 11.2 8 16 12.8 1.6-33.6 28.8-60.8 64-60.8h35.2c3.2 0 4.8 1.6 4.8 4.8v14.4c-1.6 16-8 30.4-19.2 41.6-11.2 11.2-27.2 17.6-43.2 17.6h-19.2v91.2c-3.2 4.8-8 6.4-16 6.4z m-3.2-8h8v-92.8c0-1.6 1.6-3.2 3.2-4.8h24c28.8 0 52.8-22.4 54.4-51.2v-9.6h-32c-30.4 0-54.4 24-54.4 54.4v9.6c0 1.6-1.6 3.2-3.2 4.8-1.6 0-3.2 0-4.8-1.6-9.6-16-27.2-25.6-46.4-25.6h-32v9.6a54.4 54.4 0 0 0 54.4 51.2h14.4c1.6 0 4.8-1.6 4.8-1.6 1.6-1.6 3.2-1.6 4.8-1.6 1.6 0 3.2 1.6 3.2 4.8l1.6 54.4z" fill="#C3C3C3" p-id="2805"></path><path d="M424 361.6h-123.2V336h123.2v25.6z m-115.2-8H416v-8h-107.2v8z" fill="#C3C3C3" p-id="2806"></path></svg>